<svg width="272" height="57" viewBox="0 0 272 57" fill="none" xmlns="http://www.w3.org/2000/svg">
<g clip-path="url(#clip0_1134_14079)">
<path d="M53.1574 17.1466C56.5012 19.7798 58.4121 23.3782 58.9974 27.5813C59.2567 31.7973 57.7042 35.7625 54.9179 38.9178C51.0867 42.1508 47.493 43.1107 42.5777 42.7717C39.0715 42.4027 35.8407 40.3636 33.5708 37.7168C30.8799 34.0026 29.9801 30.1505 30.6736 25.5886C31.6089 21.5318 34.2891 18.3717 37.7535 16.1375C42.6939 13.466 48.561 14.0362 53.1574 17.1466Z" fill="#C2F1D9"/>
<path d="M25.7176 30.6729C25.9444 30.6729 26.1711 30.6729 26.4047 30.6729C26.8502 31.2136 26.8502 31.2136 27.3494 31.9396C28.0389 32.8992 28.6973 33.6764 29.6253 34.4087C29.9229 34.6496 30.2205 34.8905 30.5271 35.1387C30.5271 35.3655 30.5271 35.5922 30.5271 35.8258C29.8469 35.9392 29.1667 36.0525 28.4659 36.1693C31.7199 40.5311 35.2708 44.0467 40.8329 45.1011C47.1789 45.7047 52.2442 44.5049 57.215 40.399C60.1087 37.7044 61.5486 34.3547 62.8188 30.6729C63.1589 30.8429 63.1589 30.8429 63.5059 31.0164C63.376 36.2479 60.9361 40.7728 57.2096 44.3429C52.7279 48.0449 47.6414 49.3875 41.8635 48.8799C37.2568 48.1683 32.3435 45.8587 29.4965 42.0093C26.7482 37.796 26.7482 37.796 26.7482 36.1693C25.3879 36.8495 25.3879 36.8495 24 37.5434C24.4933 35.2285 25.0787 32.9517 25.7176 30.6729Z" fill="#1CBD5D"/>
<path d="M55.2616 11.0922C56.4921 12.0464 57.6043 13.0757 58.6968 14.1839C58.8944 14.3779 59.0919 14.5719 59.2953 14.7717C60.9122 16.4891 61.8363 18.5885 62.8192 20.711C63.0247 20.5339 63.2301 20.3567 63.4418 20.1742C63.6898 20.0113 63.9378 19.8483 64.1933 19.6804C64.7035 19.8505 64.7035 19.8505 65.2239 20.0239C65.1287 20.3264 65.0335 20.6289 64.9354 20.9405C64.811 21.3395 64.6865 21.7385 64.5583 22.1495C64.4348 22.5441 64.3112 22.9387 64.1839 23.3452C63.9056 24.2987 63.681 25.2308 63.5063 26.2075C62.3553 25.8238 62.0809 25.5054 61.3163 24.5972C61.1077 24.3514 60.8991 24.1056 60.6842 23.8524C60.4818 23.6093 60.2795 23.3662 60.071 23.1157C59.8934 22.9045 59.7158 22.6933 59.5329 22.4756C59.1375 22.0037 58.7451 21.5294 58.3533 21.0545C59.0335 20.9412 59.7137 20.8278 60.4145 20.711C57.7853 16.2568 54.1505 13.7611 49.3062 12.0651C44.4432 10.9608 39.3797 11.6107 35.0403 14.0498C34.1735 14.6232 33.382 15.2308 32.5886 15.9016C32.3499 16.0982 32.1112 16.2948 31.8653 16.4974C29.078 19.0206 27.1981 22.6556 26.0616 26.2075C25.9482 26.2075 25.8348 26.2075 25.718 26.2075C25.3984 21.4126 27.547 17.4042 30.5489 13.7975C37.0392 6.91774 47.3664 6.17373 55.2616 11.0922Z" fill="#1CBD5D"/>
<path d="M42.5508 20.7104C42.6641 20.9372 42.7775 21.1639 42.8943 21.3975C43.8209 21.6009 44.7169 21.737 45.6667 21.7531C46.394 21.784 46.394 21.784 47.7037 22.0846C48.3264 23.201 48.3264 23.201 48.7343 24.4893C48.9256 24.8081 49.1169 25.1269 49.314 25.4554C49.7649 26.2069 49.7649 26.2069 49.7649 26.894C50.2183 27.0073 50.6718 27.1207 51.139 27.2375C50.9902 27.4328 50.8414 27.6281 50.6881 27.8293C49.4177 29.5021 49.4177 29.5021 49.0993 31.5102C49.0617 33.6544 47.4654 35.377 45.9861 36.8563C45.0843 36.8993 45.0843 36.8993 44.2684 36.8563C43.5343 34.9294 43.2378 33.433 43.2378 31.3599C42.9536 30.3059 42.5957 29.2878 42.2072 28.2681C41.2303 28.0382 40.4667 27.9265 39.459 28.0104C38.4284 27.9246 38.4284 27.9246 37.4408 27.1946C36.7108 26.2069 36.7108 26.2069 36.4531 25.2622C36.8489 23.5474 37.8922 22.2982 39.1155 21.054C40.3086 20.6563 41.3006 20.6869 42.5508 20.7104Z" fill="#F3C61F"/>
<path d="M42.8942 14.5271C47.1283 14.2216 50.7193 15.2382 54.0777 17.8671C56.0192 19.6753 57.5566 21.9508 58.353 24.4895C58.2688 25.7252 58.0212 26.1895 57.3224 27.2377C57.0957 25.9907 56.869 24.7437 56.6354 23.4589C55.8418 23.3455 55.0483 23.2321 54.2307 23.1153C54.5708 23.3421 54.9108 23.5688 55.2612 23.8024C55.1968 24.5968 55.1968 24.5968 54.9177 25.52C53.923 26.2791 53.4297 26.5506 52.1695 26.5506C51.9956 26.1149 51.8243 25.6781 51.6542 25.2409C51.5585 24.9978 51.4629 24.7547 51.3643 24.5042C51.1389 23.8024 51.1389 23.8024 51.1389 22.7718C50.9122 22.7718 50.6854 22.7718 50.4518 22.7718C50.3385 22.4317 50.2251 22.0916 50.1083 21.7412C50.335 21.7412 50.5618 21.7412 50.7954 21.7412C50.9087 21.2878 51.0221 20.8343 51.1389 20.3671C50.5721 20.3671 50.0052 20.3671 49.4212 20.3671C49.4212 19.9136 49.4212 19.4602 49.4212 18.993C50.1014 18.8796 50.7816 18.7663 51.4824 18.6495C51.3691 18.3094 51.2557 17.9693 51.1389 17.6189C50.7988 17.7322 50.4587 17.8456 50.1083 17.9624C49.8816 17.849 49.6548 17.7357 49.4212 17.6189C49.3079 18.0723 49.1945 18.5258 49.0777 18.993C48.7376 18.993 48.3975 18.993 48.0471 18.993C47.9338 19.3331 47.8204 19.6732 47.7036 20.0236C47.5902 19.5701 47.4769 19.1167 47.3601 18.6495C46.9066 18.5361 46.4531 18.4227 45.9859 18.3059C46.0993 18.5327 46.2127 18.7594 46.3295 18.993C45.4226 18.8796 44.5156 18.7663 43.5812 18.6495C43.4466 18.8762 43.312 19.1029 43.1733 19.3365C42.5507 20.0236 42.5507 20.0236 41.6274 20.1095C41.3653 20.0811 41.1031 20.0528 40.833 20.0236C40.833 19.4568 40.833 18.8899 40.833 18.3059C41.3998 18.3059 41.9667 18.3059 42.5507 18.3059C42.4373 17.7391 42.3239 17.1723 42.2071 16.5883C43.1183 16.2189 44.0222 15.8687 44.9554 15.5577C44.9554 15.331 44.9554 15.1042 44.9554 14.8706C44.2752 14.984 43.595 15.0974 42.8942 15.2142C42.8942 14.9874 42.8942 14.7607 42.8942 14.5271Z" fill="#2DB674"/>
<path d="M154.885 20.7106C155.907 21.3207 156.75 22.0349 157.29 23.1153C157.441 24.5976 157.451 25.8453 156.839 27.2162C156.13 28.0821 155.561 28.5632 154.437 28.7272C153.019 28.7487 152.054 28.7506 150.784 28.075C149.905 27.0362 149.511 26.1085 149.045 24.8329C148.783 25.003 148.521 25.173 148.251 25.3482C147.327 25.8635 147.327 25.8635 146.297 25.8635C146.297 26.7704 146.297 27.6774 146.297 28.6118C145.73 28.6118 145.163 28.6118 144.579 28.6118C144.579 26.1177 144.579 23.6237 144.579 21.0541C148.358 21.0541 148.358 21.0541 149.281 21.9129C149.43 22.1963 149.579 22.4798 149.732 22.7718C149.994 22.4954 150.256 22.2191 150.526 21.9344C151.906 20.6195 153.022 20.5211 154.885 20.7106ZM151.45 23.1153C150.989 24.2519 151.087 24.7696 151.45 25.9494C152.074 27.0069 152.074 27.0069 153.339 27.2591C154.488 27.3273 154.488 27.3273 155.207 26.8941C155.79 25.7967 155.74 25.0225 155.572 23.8023C154.827 22.7711 154.827 22.7711 153.854 22.0847C152.626 22.0847 152.319 22.2749 151.45 23.1153ZM146.297 22.4282C146.297 23.1084 146.297 23.7886 146.297 24.4894C146.75 24.2627 147.204 24.0359 147.671 23.8023C147.558 23.3489 147.444 22.8954 147.327 22.4282C146.987 22.4282 146.647 22.4282 146.297 22.4282Z" fill="#1CBD5D"/>
<path d="M106.447 10.4051C106.674 10.5184 106.901 10.6318 107.134 10.7486C107.134 11.3154 107.134 11.8822 107.134 12.4662C106.452 12.3544 105.77 12.2426 105.088 12.1308C104.277 12.0554 104.277 12.0554 103.356 12.8098C102.978 14.022 102.935 14.6613 103.377 15.8586C103.992 16.6869 103.992 16.6869 105.03 16.7389C106.149 16.5822 106.839 16.4614 107.821 15.9015C108.376 15.078 108.749 14.1959 109.131 13.2821C109.238 13.0394 109.345 12.7968 109.455 12.5467C109.718 11.9496 109.973 11.3494 110.226 10.7486C110.793 10.7486 111.36 10.7486 111.944 10.7486C112.405 11.8137 112.862 12.8805 113.318 13.9477C113.449 14.2504 113.58 14.5531 113.715 14.8649C113.901 15.3016 113.901 15.3016 114.091 15.7472C114.206 16.0153 114.321 16.2833 114.44 16.5595C114.692 17.2756 114.692 17.2756 114.692 18.3062C114.125 18.3062 113.558 18.3062 112.974 18.3062C112.748 17.5127 112.521 16.7191 112.287 15.9015C111.38 15.9015 110.474 15.9015 109.539 15.9015C109.426 16.5817 109.312 17.2619 109.196 17.9627C107.052 18.4441 104.744 18.72 102.669 17.8983C101.636 16.9622 100.994 16.263 100.905 14.8199C100.989 13.3407 101.172 12.6214 102.11 11.4356C103.554 10.3355 104.673 10.3405 106.447 10.4051ZM110.913 13.1533C110.687 13.6068 110.46 14.0602 110.226 14.5274C110.68 14.414 111.133 14.3007 111.6 14.1839C111.374 13.8438 111.147 13.5037 110.913 13.1533Z" fill="#1CBD5D"/>
<path d="M96.4852 43.3838C96.8253 43.4972 97.1654 43.6105 97.5158 43.7273C97.2891 44.2941 97.0623 44.861 96.8287 45.445C97.2266 45.0833 97.2266 45.0833 97.5158 44.4144C98.3133 44.2745 99.1156 44.1587 99.9205 44.0708C100.091 44.751 100.091 44.751 100.264 45.445C100.392 45.2253 100.519 45.0057 100.65 44.7794C101.494 43.8515 102.135 43.8358 103.356 43.7273C103.356 44.0674 103.356 44.4075 103.356 44.7579C103.696 44.7579 104.036 44.7579 104.386 44.7579C104.077 45.2691 103.76 45.7766 103.442 46.2823C103.179 46.7068 103.179 46.7068 102.91 47.1398C102.264 47.9244 101.942 48.0747 100.951 48.1932C100.859 47.9736 100.767 47.7539 100.672 47.5276C100.303 46.7053 100.303 46.7053 99.2334 46.4756C99.0634 46.1355 99.0634 46.1355 98.8899 45.7885C98.7765 46.1286 98.6632 46.4687 98.5464 46.8191C98.3622 46.7482 98.1779 46.6774 97.9881 46.6044C97.1331 46.4028 97.1331 46.4028 96.2061 46.8191C94.8983 47.2294 94.0398 47.0707 92.7064 46.8191C92.1407 46.8191 91.5743 46.8264 91.0102 46.8674C90.2943 46.9054 89.6381 46.9197 88.9275 46.8191C88.2405 46.132 88.2405 46.132 87.897 45.445C87.6702 45.8984 87.4435 46.3519 87.2099 46.8191C86.5374 46.8468 85.8645 46.8669 85.1917 46.8835C84.6297 46.9014 84.6297 46.9014 84.0564 46.9197C83.7367 46.8865 83.417 46.8533 83.0875 46.8191C82.8608 46.479 82.6341 46.1389 82.4005 45.7885C82.2871 46.1286 82.1738 46.4687 82.057 46.8191C81.7169 46.7057 81.3768 46.5924 81.0264 46.4756C81.0264 45.7954 81.0264 45.1152 81.0264 44.4144C81.882 44.1783 82.5306 44.0708 83.4311 44.0708C83.6578 44.2976 83.8845 44.5243 84.1181 44.7579C84.3449 44.5312 84.5716 44.3044 84.8052 44.0708C85.3794 44.1766 85.9519 44.292 86.5228 44.4144C86.9826 44.3071 87.4405 44.1917 87.897 44.0708C89.1423 44.0064 89.1423 44.0064 90.3017 44.0708C90.5284 44.2976 90.7551 44.5243 90.9887 44.7579C91.1021 44.5312 91.2155 44.3044 91.3323 44.0708C92.0124 44.0708 92.6926 44.0708 93.3934 44.0708C93.5635 44.581 93.5635 44.581 93.737 45.1014C93.9637 44.7613 94.1904 44.4212 94.424 44.0708C94.7641 44.1842 95.1042 44.2976 95.4546 44.4144C95.568 44.4144 95.6813 44.4144 95.7981 44.4144C96.0249 44.0743 96.2516 43.7342 96.4852 43.3838ZM84.8052 45.1014C84.9186 45.4415 85.0319 45.7816 85.1487 46.132C85.4888 45.7919 85.8289 45.4518 86.1793 45.1014C85.7258 45.1014 85.2724 45.1014 84.8052 45.1014ZM91.6758 45.1014C92.0193 45.7885 92.0193 45.7885 92.0193 45.7885L91.6758 45.1014ZM101.295 45.1014C101.638 45.7885 101.638 45.7885 101.638 45.7885L101.295 45.1014Z" fill="#1CBD5D"/>
<path d="M81.7129 10.748C82.2797 10.748 82.8465 10.748 83.4305 10.748C84.3374 12.7886 85.2443 14.8292 86.1787 16.9316C86.2921 14.891 86.4055 12.8504 86.5223 10.748C87.996 10.748 89.4698 10.748 90.9882 10.748C90.7614 11.3149 90.5347 11.8817 90.3011 12.4657C89.4509 12.2956 89.4509 12.2956 88.5834 12.1222C88.5834 12.4623 88.5834 12.8024 88.5834 13.1528C89.6037 13.3228 89.6037 13.3228 90.6446 13.4963C90.4179 14.0631 90.1912 14.6299 89.9576 15.2139C89.1073 15.0439 89.1073 15.0439 88.2399 14.8704C88.3533 15.8907 88.4666 16.911 88.5834 17.9622C87.1912 18.2997 85.8907 18.3337 84.4611 18.3057C84.2344 17.5121 84.0076 16.7186 83.774 15.901C82.8671 15.901 81.9602 15.901 81.0258 15.901C80.9124 16.5812 80.7991 17.2614 80.6823 17.9622C80.1154 18.0755 79.5486 18.1889 78.9646 18.3057C78.8513 18.079 78.7379 17.8522 78.6211 17.6186C78.8659 16.9099 78.8659 16.9099 79.2639 16.0486C79.4748 15.5869 79.4748 15.5869 79.6899 15.116C79.8403 14.794 79.9906 14.4721 80.1455 14.1404C80.369 13.6535 80.369 13.6535 80.5971 13.1568C80.9666 12.3527 81.3386 11.5499 81.7129 10.748ZM82.3999 13.1528C82.1732 13.6062 81.9465 14.0597 81.7129 14.5269C82.1663 14.4135 82.6198 14.3001 83.087 14.1833C82.8602 13.8432 82.6335 13.5032 82.3999 13.1528Z" fill="#1CBD5D"/>
<path d="M42.5508 20.7104C42.6641 20.9372 42.7775 21.1639 42.8943 21.3975C43.2344 21.6242 43.5745 21.851 43.9249 22.0846C43.6982 22.0846 43.4714 22.0846 43.2378 22.0846C43.2378 24.5786 43.2378 27.0726 43.2378 29.6422C43.0111 29.7556 42.7844 29.8689 42.5508 29.9857C42.3807 29.1355 42.3807 29.1355 42.2072 28.2681C41.2303 28.0382 40.4667 27.9265 39.459 28.0104C38.4284 27.9246 38.4284 27.9246 37.4408 27.1946C36.7108 26.2069 36.7108 26.2069 36.4531 25.2622C36.8489 23.5474 37.8922 22.2982 39.1155 21.054C40.3086 20.6563 41.3006 20.6869 42.5508 20.7104Z" fill="#E3BB4F"/>
<path d="M46.3299 22.0851C46.2165 22.1984 46.1031 22.3118 45.9863 22.4286C45.9601 23.4364 45.9552 24.4362 45.9649 25.4439C45.9662 25.7467 45.9675 26.0496 45.9688 26.3617C45.9744 27.6631 45.9841 28.9645 45.9934 30.2659C45.9996 31.2136 46.0037 32.1612 46.0078 33.1089C46.0106 33.4048 46.0135 33.7008 46.0164 34.0057C46.0251 36.0923 46.0251 36.0923 45.6428 36.8568C45.1893 36.8568 44.7359 36.8568 44.2687 36.8568C43.5434 34.9529 43.1588 33.4225 43.2381 31.3604C43.1814 31.0915 43.1248 30.8226 43.0664 30.5456C42.8858 29.5968 42.8855 28.7848 42.9362 27.8217C42.9528 27.4863 42.9694 27.1508 42.9865 26.8052C43.0057 26.4592 43.025 26.1131 43.0449 25.7565C43.0628 25.4038 43.0807 25.0511 43.0992 24.6877C43.1436 23.82 43.19 22.9525 43.2381 22.0851C44.4086 21.823 45.179 21.7014 46.3299 22.0851Z" fill="#ECC134"/>
<path d="M122.25 42.6963C122.703 42.6963 123.157 42.6963 123.624 42.6963C123.737 43.0364 123.851 43.3765 123.968 43.7269C124.421 43.6135 124.874 43.5001 125.342 43.3833C125.342 43.1566 125.342 42.9299 125.342 42.6963C125.908 42.6963 126.475 42.6963 127.059 42.6963C127.059 43.1497 127.059 43.6032 127.059 44.0704C127.399 44.1838 127.74 44.2971 128.09 44.4139C128.26 44.754 128.26 44.754 128.433 45.101C128.774 44.8743 129.114 44.6475 129.464 44.4139C129.327 45.4053 129.193 45.7269 128.412 46.3892C128.082 46.6018 128.082 46.6018 127.746 46.8186C127.52 46.4785 127.293 46.1385 127.059 45.7881C126.833 46.1281 126.606 46.4682 126.372 46.8186C125.539 46.9314 125.539 46.9314 124.547 46.9045C124.223 46.8992 123.898 46.8939 123.564 46.8884C122.641 46.822 121.781 46.6568 120.876 46.4751C120.155 46.6123 120.155 46.6123 119.502 46.8186C118.524 46.8186 117.707 46.6706 116.753 46.4751C116.527 46.4751 116.3 46.4751 116.066 46.4751C115.613 46.4751 115.159 46.4751 114.692 46.4751C114.239 46.5885 113.785 46.7018 113.318 46.8186C113.205 45.5716 113.091 44.3246 112.975 43.0398C114.005 43.3833 114.005 43.3833 114.349 44.0704C114.689 43.8437 115.029 43.6169 115.379 43.3833C115.493 43.9502 115.606 44.517 115.723 45.101C115.723 44.5342 115.723 43.9673 115.723 43.3833C115.914 43.4329 116.105 43.4825 116.303 43.5336C117.114 43.7418 117.114 43.7418 118.02 43.8772C118.282 43.9409 118.545 44.0047 118.815 44.0704C118.928 44.2971 119.041 44.5239 119.158 44.7575C119.385 44.5307 119.612 44.304 119.845 44.0704C120.919 44.0275 120.919 44.0275 121.906 44.0704C121.793 44.5239 121.68 44.9773 121.563 45.4445C121.79 45.3312 122.016 45.2178 122.25 45.101C122.25 44.3074 122.25 43.5139 122.25 42.6963ZM120.189 44.7575C120.189 45.7881 120.189 45.7881 120.189 45.7881V44.7575ZM123.28 44.7575C123.394 45.0976 123.507 45.4377 123.624 45.7881C123.737 45.448 123.851 45.1079 123.968 44.7575C123.741 44.7575 123.514 44.7575 123.28 44.7575ZM124.998 44.7575C124.885 45.0976 124.771 45.4377 124.655 45.7881C124.995 45.6747 125.335 45.5613 125.685 45.4445C125.685 45.2178 125.685 44.9911 125.685 44.7575C125.458 44.7575 125.232 44.7575 124.998 44.7575Z" fill="#1CBD5D"/>
<path d="M82.0566 21.0546C83.8117 20.8125 83.8117 20.8125 84.8049 21.0546C85.6607 21.871 86.2674 22.787 86.8661 23.8028C87.0534 23.5053 87.0534 23.5053 87.2445 23.2017C87.5035 22.8191 87.5035 22.8191 87.7678 22.4287C87.9352 22.1736 88.1026 21.9186 88.2751 21.6558C88.9272 21.0546 88.9272 21.0546 90.9884 21.0546C90.875 23.5486 90.7617 26.0426 90.6449 28.6122C90.0781 28.6122 89.5112 28.6122 88.9272 28.6122C88.8139 27.3652 88.7005 26.1182 88.5837 24.8334C88.1302 25.4002 87.6768 25.9671 87.2096 26.5511C86.1236 26.0805 85.838 25.8678 85.1484 24.8334C85.035 26.0804 84.9217 27.3274 84.8049 28.6122C84.2381 28.6122 83.6712 28.6122 83.0872 28.6122C83.0804 28.4199 83.0736 28.2276 83.0666 28.0294C83.0339 27.1572 82.9962 26.2852 82.9584 25.4131C82.9478 25.1105 82.9371 24.8078 82.9262 24.4959C82.9129 24.2048 82.8996 23.9136 82.8859 23.6136C82.8751 23.3456 82.8644 23.0775 82.8532 22.8014C82.7795 21.9816 82.7795 21.9816 82.0566 21.0546Z" fill="#1CBD5D"/>
<path d="M124.311 22.4279C124.424 22.3145 124.538 22.2011 124.654 22.0843C125.234 22.0596 125.814 22.0555 126.394 22.0629C126.709 22.066 127.025 22.0691 127.35 22.0722C127.594 22.0762 127.838 22.0802 128.09 22.0843C128.203 22.6511 128.317 23.218 128.433 23.802C128.093 23.802 127.753 23.802 127.403 23.802C127.289 24.7089 127.176 25.6158 127.059 26.5502C127.484 26.784 127.484 26.784 127.918 27.0226C128.201 27.2068 128.485 27.391 128.777 27.5808C128.777 27.8075 128.777 28.0343 128.777 28.2679C127.811 28.4826 127.811 28.4826 126.716 28.6114C126.376 28.3847 126.035 28.1579 125.685 27.9243C125.345 28.1511 125.005 28.3778 124.654 28.6114C122.318 28.7968 122.318 28.7968 121.047 28.2249C120.532 27.5808 120.532 27.5808 120.403 26.6576C120.559 25.2848 120.801 24.0918 121.219 22.7714C122.491 21.9232 122.87 22.1459 124.311 22.4279ZM122.593 23.4584C122.593 23.6852 122.593 23.9119 122.593 24.1455C122.82 24.1455 123.047 24.1455 123.28 24.1455C123.28 23.9188 123.28 23.692 123.28 23.4584C123.054 23.4584 122.827 23.4584 122.593 23.4584ZM124.805 23.9737C124.642 24.1438 124.479 24.3138 124.311 24.489C124.424 24.7158 124.538 24.9425 124.654 25.1761C124.995 25.1761 125.335 25.1761 125.685 25.1761C125.685 24.6093 125.685 24.0424 125.685 23.4584C125.259 23.4188 125.259 23.4188 124.805 23.9737ZM122.25 25.5196C122.363 26.0864 122.477 26.6533 122.593 27.2373C123.16 27.2373 123.727 27.2373 124.311 27.2373C124.424 27.0105 124.538 26.7838 124.654 26.5502C123.861 26.2101 123.067 25.87 122.25 25.5196Z" fill="#1CBD5D"/>
<path d="M121.906 31.3598C123.631 31.0572 123.631 31.0572 124.654 31.3598C125.633 32.4023 126.351 33.5566 127.059 34.795C127.173 33.6614 127.286 32.5278 127.403 31.3598C127.97 31.3598 128.536 31.3598 129.12 31.3598C129.234 33.8538 129.347 36.3478 129.464 38.9174C128.784 38.9174 128.104 38.9174 127.403 38.9174C126.675 38.1659 126.675 38.1659 126.072 37.1998C125.867 36.8809 125.662 36.5621 125.452 36.2336C125.302 35.9856 125.152 35.7376 124.998 35.4821C124.885 36.6158 124.771 37.7494 124.654 38.9174C124.088 38.9174 123.521 38.9174 122.937 38.9174C122.93 38.7251 122.923 38.5327 122.916 38.3346C122.883 37.4623 122.846 36.5903 122.808 35.7183C122.797 35.4156 122.787 35.1129 122.776 34.8011C122.763 34.5099 122.749 34.2188 122.736 33.9188C122.725 33.6507 122.714 33.3827 122.703 33.1065C122.629 32.2867 122.629 32.2867 121.906 31.3598Z" fill="#1CBD5D"/>
<path d="M114.349 10.7484C116.073 10.4458 116.073 10.4458 117.097 10.7484C118.075 11.791 118.794 12.9453 119.502 14.1837C119.615 13.0501 119.728 11.9164 119.845 10.7484C120.412 10.7484 120.979 10.7484 121.563 10.7484C121.733 14.3194 121.733 14.3194 121.906 17.9625C121.339 18.0759 120.773 18.1893 120.189 18.3061C119.282 17.1724 118.375 16.0388 117.44 14.8708C117.327 15.8911 117.214 16.9113 117.097 17.9625C116.643 18.0759 116.19 18.1893 115.723 18.3061C114.918 17.5014 115.238 15.2022 115.201 14.0509C115.19 13.7768 115.178 13.5026 115.166 13.2202C115.157 12.9688 115.149 12.7173 115.14 12.4582C115.068 11.6702 115.068 11.6702 114.349 10.7484Z" fill="#1CBD5D"/>
<path d="M139.769 42.6963C140.109 42.8097 140.45 42.923 140.8 43.0398C140.8 43.2665 140.8 43.4933 140.8 43.7269C140.46 43.7269 140.12 43.7269 139.769 43.7269C139.769 43.9536 139.769 44.1803 139.769 44.4139C141.077 44.1832 142.295 43.8205 143.548 43.3833C143.484 43.603 143.421 43.8226 143.355 44.0489C143.305 44.2828 143.256 44.5166 143.205 44.7575C143.318 44.8708 143.431 44.9842 143.548 45.101C143.683 44.9239 143.817 44.7467 143.956 44.5642C144.162 44.4013 144.367 44.2383 144.579 44.0704C145.481 44.1992 145.481 44.1992 146.296 44.4139C146.41 44.3006 146.523 44.1872 146.64 44.0704C147.327 44.0564 148.014 44.0558 148.701 44.0704C148.701 44.5239 148.701 44.9773 148.701 45.4445C148.928 44.9911 149.155 44.5376 149.388 44.0704C150.762 44.0704 150.762 44.0704 151.793 44.4139C151.963 44.754 151.963 44.754 152.136 45.101C152.363 44.7609 152.59 44.4208 152.824 44.0704C153.05 44.0704 153.277 44.0704 153.511 44.0704C153.511 44.4105 153.511 44.7506 153.511 45.101C153.737 45.101 153.964 45.101 154.198 45.101C154.198 44.8743 154.198 44.6475 154.198 44.4139C154.424 44.4139 154.651 44.4139 154.885 44.4139C154.414 45.4288 153.858 46.2828 153.167 47.1622C152.473 46.9554 151.786 46.7248 151.106 46.4751C150.936 46.135 150.936 46.135 150.762 45.7881C150.536 46.1281 150.309 46.4682 150.075 46.8186C149.066 46.8831 149.066 46.8831 148.014 46.8186C147.674 46.8186 147.334 46.8186 146.984 46.8186C146.764 46.7549 146.544 46.6911 146.318 46.6254C145.497 46.4513 145.032 46.5873 144.235 46.8186C143.548 46.8186 142.861 46.8186 142.174 46.8186C142.061 46.4785 141.947 46.1385 141.831 45.7881C141.944 45.5613 142.057 45.3346 142.174 45.101C141.834 45.101 141.494 45.101 141.144 45.101C141.03 45.6678 140.917 46.2346 140.8 46.8186C140.46 46.8186 140.12 46.8186 139.769 46.8186C139.656 46.5919 139.543 46.3652 139.426 46.1316C139.313 46.585 139.199 47.0385 139.082 47.5057C138.742 47.3923 138.402 47.279 138.052 47.1622C138.052 46.2553 138.052 45.3483 138.052 44.4139C138.278 44.4139 138.505 44.4139 138.739 44.4139C138.781 44.1943 138.824 43.9746 138.868 43.7483C138.938 43.5145 139.009 43.2807 139.082 43.0398C139.309 42.9265 139.536 42.8131 139.769 42.6963ZM146.984 44.7575C147.327 45.4445 147.327 45.4445 147.327 45.4445L146.984 44.7575ZM144.579 45.101C144.692 45.4411 144.806 45.7812 144.922 46.1316C145.262 45.7915 145.603 45.4514 145.953 45.101C145.499 45.101 145.046 45.101 144.579 45.101Z" fill="#1CBD5D"/>
<path d="M102.324 20.7105C103.383 21.2699 104.133 21.7514 104.858 22.7073C105.328 24.3521 105.274 25.4959 104.45 27.0014C103.698 27.9246 103.163 28.5402 101.951 28.715C100.313 28.7234 99.1634 28.6884 97.8584 27.5811C96.9857 26.1349 96.9299 24.7641 97.1713 23.1152C98.4545 20.9613 99.8684 20.4565 102.324 20.7105ZM99.5116 22.6214C98.656 23.7721 98.6886 24.4608 98.8889 25.8635C99.3688 26.7728 99.3688 26.7728 100.263 27.2376C101.532 27.1874 101.532 27.1874 102.668 26.8941C103.263 25.2393 103.263 25.2393 103.14 23.5232C102.598 22.6608 102.252 22.4041 101.294 22.0846C100.249 21.9848 100.249 21.9848 99.5116 22.6214Z" fill="#1CBD5D"/>
<path d="M120.274 31.6174C121.603 32.7048 121.603 32.7048 121.905 33.7645C122.062 35.4847 121.944 36.5127 120.875 37.8868C120.218 38.6194 119.761 38.8818 118.785 39.0154C117.153 39.0776 115.983 38.9825 114.691 37.8868C113.818 36.4391 113.766 35.0712 114.004 33.4209C114.627 32.3372 115.107 31.853 116.194 31.2524C117.822 30.8261 118.769 30.8069 120.274 31.6174ZM116.302 32.9056C115.511 34.0768 115.524 34.7829 115.722 36.1692C116.23 37.0498 116.23 37.0498 117.096 37.5433C118.141 37.801 118.141 37.801 119.157 37.5433C120.036 36.5789 120.197 36.0564 120.145 34.7521C119.835 33.733 119.686 33.3255 118.814 32.7339C117.693 32.3029 117.322 32.2435 116.302 32.9056Z" fill="#1CBD5D"/>
<path d="M90.3015 31.3602C91.5019 32.5307 91.982 33.3928 92.148 35.0532C92.1396 36.2042 91.9353 36.8048 91.2033 37.6941C90.1238 38.7478 89.6175 38.982 88.1545 39.0467C87.0174 39.0265 86.2567 38.9136 85.3203 38.2523C84.2142 36.8973 83.9764 35.8395 84.118 34.1085C84.6059 32.9863 85.2386 32.144 86.1792 31.3602C87.6081 30.8839 88.85 30.9691 90.3015 31.3602ZM86.7803 32.7558C85.9586 33.6656 85.86 34.2641 85.8356 35.4826C86.2265 36.2821 86.5805 36.9146 87.2097 37.5438C88.6211 37.6683 88.6211 37.6683 89.915 37.1788C90.5241 36.1298 90.4264 35.2946 90.3015 34.1085C89.7975 33.1004 89.4846 32.8165 88.4336 32.4123C87.5436 32.3247 87.5436 32.3247 86.7803 32.7558Z" fill="#1CBD5D"/>
<path d="M158.32 21.0537C159.567 21.0537 160.814 21.0537 162.099 21.0537C163.13 22.0843 163.13 22.0843 163.259 23.2867C163.121 24.5732 163.016 24.724 162.099 25.5196C162.248 25.6852 162.397 25.8508 162.55 26.0215C162.741 26.2385 162.933 26.4554 163.13 26.679C163.417 27.0018 163.417 27.0018 163.709 27.3312C164.16 27.9243 164.16 27.9243 164.16 28.6114C163.43 28.7402 163.43 28.7402 162.443 28.6114C161.673 27.9953 161.026 27.2941 160.381 26.5502C160.268 27.2304 160.155 27.9106 160.038 28.6114C159.471 28.6114 158.904 28.6114 158.32 28.6114C158.32 26.1173 158.32 23.6233 158.32 21.0537ZM160.038 22.4278C160.038 22.9947 160.038 23.5615 160.038 24.1455C160.491 24.0321 160.945 23.9187 161.412 23.8019C161.299 23.3485 161.185 22.895 161.069 22.4278C160.728 22.4278 160.388 22.4278 160.038 22.4278Z" fill="#1CBD5D"/>
<path d="M98.2025 31.3604C98.7693 31.3604 99.3361 31.3604 99.9201 31.3604C100.034 33.1742 100.147 34.988 100.264 36.8568C100.831 36.9702 101.397 37.0836 101.981 37.2004C102.095 35.2732 102.208 33.346 102.325 31.3604C102.892 31.3604 103.459 31.3604 104.043 31.3604C104.213 34.9313 104.213 34.9313 104.386 38.5745C103.228 38.8061 102.258 38.9871 101.101 39.0254C100.718 39.0446 100.718 39.0446 100.327 39.0643C99.1954 38.8437 98.8511 38.4985 98.2025 37.5439C98.0373 36.479 98.073 35.4405 98.1166 34.3662C98.1228 34.0775 98.129 33.7888 98.1354 33.4913C98.1516 32.7808 98.1762 32.0705 98.2025 31.3604Z" fill="#1CBD5D"/>
<path d="M106.104 21.0537C109.539 21.0537 109.539 21.0537 110.462 21.6119C110.913 22.4278 110.913 22.4278 110.891 23.4799C110.565 24.5028 110.305 24.82 109.539 25.5196C109.688 25.6852 109.836 25.8508 109.99 26.0215C110.181 26.2385 110.372 26.4554 110.569 26.679C110.856 27.0018 110.856 27.0018 111.149 27.3312C111.6 27.9243 111.6 27.9243 111.6 28.6114C110.849 28.7402 110.849 28.7402 109.882 28.6114C109.199 27.9794 108.718 27.3087 108.165 26.5502C107.938 27.2304 107.711 27.9106 107.478 28.6114C107.024 28.6114 106.571 28.6114 106.104 28.6114C106.104 26.1173 106.104 23.6233 106.104 21.0537ZM107.821 22.4278C107.821 22.9947 107.821 23.5615 107.821 24.1455C108.275 23.9187 108.728 23.692 109.195 23.4584C109.082 23.1183 108.969 22.7782 108.852 22.4278C108.512 22.4278 108.172 22.4278 107.821 22.4278Z" fill="#1CBD5D"/>
<path d="M137.021 21.0537C137.815 21.0537 138.609 21.0537 139.426 21.0537C139.653 21.6205 139.88 22.1874 140.113 22.7714C140.34 22.7714 140.567 22.7714 140.8 22.7714C141.027 22.2045 141.254 21.6377 141.487 21.0537C142.281 21.0537 143.074 21.0537 143.892 21.0537C143.735 21.257 143.579 21.4602 143.417 21.6696C143.22 21.9411 143.022 22.2126 142.819 22.4922C142.619 22.7593 142.42 23.0263 142.215 23.3014C141.728 24.1363 141.728 24.1363 142.067 25.0392C142.536 25.9253 142.536 25.9253 143.248 26.9581C143.892 27.9243 143.892 27.9243 143.892 28.6114C143.099 28.6114 142.305 28.6114 141.487 28.6114C141.147 27.9312 140.807 27.251 140.457 26.5502C140.273 26.8903 140.088 27.2304 139.899 27.5808C139.629 27.9209 139.36 28.261 139.083 28.6114C137.966 28.7402 137.966 28.7402 137.021 28.6114C137.56 27.1316 138.287 25.8419 139.083 24.489C138.402 23.3554 137.722 22.2217 137.021 21.0537Z" fill="#1CBD5D"/>
<path d="M92.0186 10.748C93.2656 10.748 94.5126 10.748 95.7974 10.748C96.828 12.1222 96.828 12.1222 96.9568 12.981C96.8057 13.9882 96.4667 14.4609 95.7974 15.2139C95.9214 15.3795 96.0454 15.5452 96.1731 15.7158C96.3325 15.9328 96.492 16.1498 96.6562 16.3733C96.8156 16.5886 96.975 16.8038 97.1393 17.0255C97.515 17.6186 97.515 17.6186 97.515 18.3057C95.8549 18.1634 95.1698 17.4592 94.0797 16.2445C93.853 16.9247 93.6263 17.6049 93.3927 18.3057C92.9392 18.3057 92.4858 18.3057 92.0186 18.3057C92.0186 15.8117 92.0186 13.3176 92.0186 10.748ZM93.7362 11.7786C93.7362 12.4588 93.7362 13.139 93.7362 13.8398C94.1897 13.6131 94.6431 13.3864 95.1103 13.1528C94.997 12.8127 94.8836 12.4726 94.7668 12.1222C94.4267 12.0088 94.0866 11.8954 93.7362 11.7786Z" fill="#1CBD5D"/>
<path d="M70.377 19.3369C70.8304 19.3369 71.2839 19.3369 71.7511 19.3369C71.7511 26.0254 71.7511 32.714 71.7511 39.6052C71.2976 39.6052 70.8442 39.6052 70.377 39.6052C70.377 32.9166 70.377 26.2281 70.377 19.3369Z" fill="#1CBD5D"/>
<path d="M92.0186 21.0537C95.4538 21.0537 95.4538 21.0537 96.3771 21.5905C96.828 22.4278 96.828 22.4278 96.8494 23.6517C96.4844 24.8325 96.4844 24.8325 95.6686 25.4981C94.7668 25.8631 94.7668 25.8631 93.7362 25.8631C93.7362 26.77 93.7362 27.677 93.7362 28.6114C93.1694 28.6114 92.6026 28.6114 92.0186 28.6114C92.0186 26.1173 92.0186 23.6233 92.0186 21.0537ZM93.7362 22.4278C93.7362 23.108 93.7362 23.7882 93.7362 24.489C94.0763 24.3756 94.4164 24.2623 94.7668 24.1455C94.8802 23.8054 94.9935 23.4653 95.1103 23.1149C94.997 22.8882 94.8836 22.6614 94.7668 22.4278C94.4267 22.4278 94.0866 22.4278 93.7362 22.4278Z" fill="#1CBD5D"/>
<path d="M132.556 21.0537C133.916 21.0537 135.276 21.0537 136.678 21.0537C136.451 21.6205 136.225 22.1874 135.991 22.7714C135.537 22.658 135.084 22.5446 134.617 22.4278C134.503 22.9947 134.39 23.5615 134.273 24.1455C135.067 24.1455 135.86 24.1455 136.678 24.1455C136.451 24.5989 136.225 25.0524 135.991 25.5196C135.537 25.5196 135.084 25.5196 134.617 25.5196C134.503 26.0864 134.39 26.6532 134.273 27.2372C135.18 27.0105 136.087 26.7838 137.022 26.5502C136.795 27.2304 136.568 27.9106 136.334 28.6114C135.087 28.6114 133.84 28.6114 132.556 28.6114C132.556 26.1173 132.556 23.6233 132.556 21.0537Z" fill="#1CBD5D"/>
<path d="M134.273 31.3602C134.273 31.927 134.273 32.4938 134.273 33.0778C133.706 32.9645 133.139 32.8511 132.555 32.7343C132.555 33.0744 132.555 33.4145 132.555 33.7649C132.831 33.9633 133.108 34.1617 133.392 34.3661C134.273 35.139 134.273 35.139 134.638 36.3414C134.616 37.5437 134.616 37.5437 134.122 38.3811C132.856 39.1533 131.962 39.0157 130.494 38.9178C130.381 38.351 130.267 37.7842 130.15 37.2002C130.944 37.3136 131.737 37.4269 132.555 37.5437C132.185 36.3671 131.876 35.8329 130.945 34.9887C130.15 34.1084 130.15 34.1084 130.129 33.0349C130.494 32.0473 130.494 32.0473 131.052 31.3817C132.208 30.8645 133.059 31.1034 134.273 31.3602Z" fill="#1CBD5D"/>
<path d="M83.4309 31.3602C83.4309 31.927 83.4309 32.4938 83.4309 33.0778C82.8641 32.9645 82.2973 32.8511 81.7133 32.7343C81.7133 33.0744 81.7133 33.4145 81.7133 33.7649C81.9896 33.9633 82.266 34.1617 82.5507 34.3661C83.4309 35.139 83.4309 35.139 83.7959 36.3414C83.7745 37.5437 83.7745 37.5437 83.2807 38.3811C82.0142 39.1533 81.1205 39.0157 79.6521 38.9178C79.5388 38.351 79.4254 37.7842 79.3086 37.2002C80.1021 37.2002 80.8957 37.2002 81.7133 37.2002C81.183 36.2456 80.743 35.5344 79.9098 34.817C79.3086 34.1084 79.3086 34.1084 79.3086 33.0564C79.6521 32.0473 79.6521 32.0473 80.2104 31.3817C81.3663 30.8645 82.2168 31.1034 83.4309 31.3602Z" fill="#1CBD5D"/>
<path d="M164.16 21.0537C166.087 21.0537 168.014 21.0537 170 21.0537C169.887 21.6205 169.773 22.1874 169.656 22.7714C169.203 22.658 168.749 22.5446 168.282 22.4278C168.169 24.355 168.056 26.2822 167.939 28.2678C167.372 28.3812 166.805 28.4946 166.221 28.6114C165.878 28.2678 165.878 28.2678 165.844 26.9568C165.846 26.4133 165.85 25.8698 165.856 25.3264C165.858 25.0494 165.859 24.7724 165.861 24.487C165.865 23.8006 165.871 23.1142 165.878 22.4278C165.197 22.4278 164.517 22.4278 163.816 22.4278C163.93 21.9744 164.043 21.5209 164.16 21.0537Z" fill="#1CBD5D"/>
<path d="M105.073 31.3604C107 31.3604 108.927 31.3604 110.913 31.3604C110.8 31.9272 110.686 32.494 110.569 33.078C109.889 32.8513 109.209 32.6245 108.508 32.3909C108.508 34.5449 108.508 36.6988 108.508 38.918C107.941 38.918 107.375 38.918 106.791 38.918C106.791 36.7641 106.791 34.6101 106.791 32.3909C106.11 32.5043 105.43 32.6177 104.729 32.7345C104.843 32.281 104.956 31.8276 105.073 31.3604Z" fill="#1CBD5D"/>
<path d="M111.6 21.0537C113.528 21.0537 115.455 21.0537 117.44 21.0537C117.214 21.6205 116.987 22.1874 116.753 22.7714C115.903 22.4313 115.903 22.4313 115.036 22.0843C115.036 24.2382 115.036 26.3922 115.036 28.6114C114.469 28.6114 113.902 28.6114 113.318 28.6114C113.318 26.4574 113.318 24.3035 113.318 22.0843C112.638 22.1977 111.958 22.311 111.257 22.4278C111.37 21.9744 111.484 21.5209 111.6 21.0537Z" fill="#1CBD5D"/>
<path d="M106.447 42.6963C106.9 42.6963 107.354 42.6963 107.821 42.6963C107.821 43.1497 107.821 43.6032 107.821 44.0704C108.161 44.0704 108.501 44.0704 108.852 44.0704C108.852 44.5239 108.852 44.9773 108.852 45.4445C109.078 45.4445 109.305 45.4445 109.539 45.4445C109.765 44.9911 109.992 44.5376 110.226 44.0704C110.431 44.1271 110.637 44.1838 110.848 44.2422C111.639 44.4522 111.639 44.4522 112.63 44.4139C112.51 45.2894 112.332 45.7356 111.75 46.4107C110.477 47.0311 109.543 46.7278 108.165 46.4751C108.051 46.135 107.938 45.7949 107.821 45.4445C107.594 45.898 107.368 46.3514 107.134 46.8186C106.454 46.8186 105.774 46.8186 105.073 46.8186C104.386 44.8433 104.386 44.8433 104.386 44.0704C105.416 43.3833 105.416 43.3833 106.447 43.3833C106.447 43.1566 106.447 42.9299 106.447 42.6963ZM105.76 44.7575C105.873 45.0976 105.987 45.4377 106.103 45.7881C106.33 45.448 106.557 45.1079 106.79 44.7575C106.45 44.7575 106.11 44.7575 105.76 44.7575Z" fill="#1CBD5D"/>
<path d="M40.1461 21.3975C40.1421 21.8111 40.1381 22.2247 40.134 22.6508C40.1308 23.192 40.1277 23.7333 40.1246 24.2745C40.1217 24.5473 40.1189 24.8201 40.1159 25.1011C40.0669 26.5586 40.0669 26.5586 40.4896 27.9245C39.1097 28.085 38.5779 28.035 37.4408 27.1945C36.7108 26.2069 36.7108 26.2069 36.4746 25.2407C36.9196 23.1775 37.9446 21.3975 40.1461 21.3975Z" fill="#DDB960"/>
<path d="M93.0498 31.3604C93.6166 31.3604 94.1835 31.3604 94.7675 31.3604C94.7675 33.4009 94.7675 35.4415 94.7675 37.5439C95.6744 37.3172 96.5813 37.0904 97.5157 36.8568C97.289 37.537 97.0622 38.2172 96.8286 38.918C95.5816 38.918 94.3346 38.918 93.0498 38.918C93.0498 36.424 93.0498 33.93 93.0498 31.3604Z" fill="#1CBD5D"/>
<path d="M45.6426 22.085C46.3228 22.085 47.003 22.085 47.7038 22.085C47.7038 22.4251 47.7038 22.7651 47.7038 23.1155C47.477 23.1155 47.2503 23.1155 47.0167 23.1155C47.0574 24.6134 47.1 26.1111 47.1446 27.6089C47.1595 28.1183 47.1738 28.6278 47.1876 29.1373C47.2074 29.8698 47.2293 30.6023 47.2515 31.3348C47.2641 31.7755 47.2767 32.2163 47.2897 32.6704C47.3141 33.7722 47.3141 33.7722 47.7038 34.7955C47.2213 35.5732 46.6056 36.1768 45.9861 36.8567C45.3959 35.6763 45.6015 34.32 45.609 33.0215C45.6095 32.7099 45.61 32.3982 45.6105 32.0771C45.6124 31.0795 45.6168 30.082 45.6211 29.0844C45.6228 28.4089 45.6244 27.7335 45.6258 27.0581C45.6296 25.4004 45.6355 23.7427 45.6426 22.085Z" fill="#F1C426"/>
<path d="M33.6191 37.2002C35.938 37.8014 35.938 37.8014 36.7109 38.5743C37.5447 38.8077 37.5447 38.8077 38.4715 38.9608C38.9405 39.0471 38.9405 39.0471 39.4189 39.1352C39.6589 39.1769 39.8989 39.2185 40.1462 39.2614C40.1896 39.4801 40.233 39.6989 40.2777 39.9243C40.4194 40.6918 40.4194 40.6918 41.1338 41.022C41.3747 41.1212 41.6156 41.2203 41.8638 41.3225C42.2039 41.5493 42.544 41.776 42.8944 42.0096C42.8944 42.2363 42.8944 42.4631 42.8944 42.6967C39.1264 42.2317 36.3345 40.4846 33.6191 37.8873C33.6191 37.6605 33.6191 37.4338 33.6191 37.2002Z" fill="#2CB574"/>
<path d="M111.257 31.3604C111.824 31.3604 112.39 31.3604 112.974 31.3604C112.974 33.8544 112.974 36.3484 112.974 38.918C112.408 38.918 111.841 38.918 111.257 38.918C111.257 36.424 111.257 33.93 111.257 31.3604Z" fill="#1CBD5D"/>
<path d="M79.6514 21.0537C80.2182 21.0537 80.785 21.0537 81.369 21.0537C81.369 23.5477 81.369 26.0418 81.369 28.6114C80.8022 28.6114 80.2354 28.6114 79.6514 28.6114C79.6514 26.1173 79.6514 23.6233 79.6514 21.0537Z" fill="#1CBD5D"/>
<path d="M98.2021 10.748C98.769 10.748 99.3358 10.748 99.9198 10.748C99.9198 13.2421 99.9198 15.7361 99.9198 18.3057C99.353 18.1923 98.7861 18.079 98.2021 17.9622C98.2021 15.5815 98.2021 13.2008 98.2021 10.748Z" fill="#1CBD5D"/>
<path d="M149.388 44.0703C150.762 44.0703 150.762 44.0703 151.792 44.4138C151.906 44.6406 152.019 44.8673 152.136 45.1009C152.363 44.7608 152.589 44.4207 152.823 44.0703C153.05 44.0703 153.277 44.0703 153.51 44.0703C153.51 44.4104 153.51 44.7505 153.51 45.1009C153.737 45.1009 153.964 45.1009 154.197 45.1009C154.197 44.8742 154.197 44.6474 154.197 44.4138C154.424 44.4138 154.651 44.4138 154.884 44.4138C154.413 45.4287 153.858 46.2827 153.167 47.1621C152.473 46.9553 151.785 46.7247 151.105 46.475C150.992 46.2483 150.879 46.0216 150.762 45.788C150.422 46.2981 150.422 46.2981 150.075 46.8185C149.395 46.5918 148.714 46.3651 148.014 46.1315C148.127 45.678 148.24 45.2246 148.357 44.7574C148.471 44.9841 148.584 45.2108 148.701 45.4444C148.927 44.991 149.154 44.5375 149.388 44.0703Z" fill="#1CBD5D"/>
<path d="M134.273 42.6963C134.5 42.8097 134.726 42.923 134.96 43.0398C134.96 43.2665 134.96 43.4933 134.96 43.7269C134.62 43.7269 134.28 43.7269 133.929 43.7269C133.929 43.9536 133.929 44.1803 133.929 44.4139C134.27 44.4139 134.61 44.4139 134.96 44.4139C134.96 44.6407 134.96 44.8674 134.96 45.101C134.507 45.101 134.053 45.101 133.586 45.101C133.473 45.8945 133.359 46.6881 133.242 47.5057C132.902 47.3923 132.562 47.279 132.212 47.1622C132.212 46.8221 132.212 46.482 132.212 46.1316C131.985 46.3583 131.758 46.585 131.525 46.8186C130.623 46.6898 130.623 46.6898 129.807 46.4751C129.743 45.6592 129.743 45.6592 129.807 44.7575C130.838 44.0704 130.838 44.0704 131.933 44.1992C132.252 44.2701 132.57 44.3409 132.899 44.4139C132.934 44.1943 132.97 43.9746 133.006 43.7483C133.084 43.5145 133.162 43.2807 133.242 43.0398C133.582 42.9265 133.923 42.8131 134.273 42.6963ZM130.838 45.101C130.951 45.4411 131.064 45.7812 131.181 46.1316C131.295 45.7915 131.408 45.4514 131.525 45.101C131.298 45.101 131.071 45.101 130.838 45.101Z" fill="#1CBD5D"/>
<path d="M86.5221 10.748C87.9959 10.748 89.4696 10.748 90.988 10.748C90.988 10.8614 90.988 10.9748 90.988 11.0916C89.741 11.0916 88.494 11.0916 87.2092 11.0916C87.2092 13.2455 87.2092 15.3994 87.2092 17.6186C87.4359 17.6186 87.6626 17.6186 87.8962 17.6186C87.8962 16.7117 87.8962 15.8048 87.8962 14.8704C88.0096 14.8704 88.123 14.8704 88.2398 14.8704C88.3531 15.8907 88.4665 16.911 88.5833 17.9622C87.1911 18.2997 85.8905 18.3337 84.4609 18.3057C84.4609 18.079 84.4609 17.8522 84.4609 17.6186C84.801 17.6186 85.1411 17.6186 85.4915 17.6186C85.3782 16.9384 85.2648 16.2583 85.148 15.5575C85.4881 16.0109 85.8282 16.4644 86.1786 16.9316C86.3486 13.8707 86.3486 13.8707 86.5221 10.748Z" fill="#1CBD5D"/>
<path d="M132.556 21.0537C133.916 21.0537 135.276 21.0537 136.678 21.0537C136.451 21.6205 136.225 22.1874 135.991 22.7714C135.537 22.658 135.084 22.5446 134.617 22.4278C134.503 22.9947 134.39 23.5615 134.273 24.1455C134.16 24.1455 134.047 24.1455 133.93 24.1455C133.93 23.3519 133.93 22.5584 133.93 21.7408C134.95 21.9108 134.95 21.9108 135.991 22.0843C135.991 21.8576 135.991 21.6308 135.991 21.3972C134.971 21.3972 133.95 21.3972 132.899 21.3972C132.899 23.6645 132.899 25.9318 132.899 28.2678C133.919 28.1545 134.94 28.0411 135.991 27.9243C136.104 27.6976 136.218 27.4708 136.334 27.2372C136.108 27.1239 135.881 27.0105 135.647 26.8937C136.101 26.7803 136.554 26.667 137.022 26.5502C136.795 27.2304 136.568 27.9106 136.334 28.6114C135.087 28.6114 133.84 28.6114 132.556 28.6114C132.556 26.1173 132.556 23.6233 132.556 21.0537Z" fill="#1CBD5D"/>
<path d="M42.2066 21.3975C42.7735 21.5108 43.3403 21.6242 43.9243 21.741C43.5842 21.911 43.5842 21.911 43.2372 22.0845C43.2372 24.5785 43.2372 27.0726 43.2372 29.6422C43.0105 29.7555 42.7838 29.8689 42.5502 29.9857C41.8581 28.0178 41.8254 26.4056 41.9919 24.3389C42.0114 24.0549 42.0309 23.7708 42.051 23.4781C42.0991 22.7843 42.1523 22.0908 42.2066 21.3975Z" fill="#E7BE44"/>
<path d="M92.3623 21.0537C93.3826 21.2238 93.3826 21.2238 94.4235 21.3972C94.4235 21.624 94.4235 21.8507 94.4235 22.0843C94.0834 22.0843 93.7433 22.0843 93.3929 22.0843C93.4567 22.5307 93.5204 22.977 93.5861 23.4369C93.7772 25.1092 93.6304 26.605 93.3929 28.2678C93.0528 28.2678 92.7127 28.2678 92.3623 28.2678C92.3623 25.8872 92.3623 23.5065 92.3623 21.0537Z" fill="#1CBD5D"/>
<path d="M119.157 31.0165C120.2 31.5779 120.972 32.0662 121.691 33.0132C121.994 34.075 121.948 35.0726 121.905 36.1694C121.792 36.1694 121.679 36.1694 121.562 36.1694C121.449 35.4892 121.335 34.809 121.218 34.1082C121.105 34.1082 120.992 34.1082 120.875 34.1082C120.761 34.6751 120.648 35.2419 120.531 35.8259C119.844 34.7953 119.844 34.7953 119.672 33.8935C119.616 33.6243 119.559 33.3551 119.501 33.0777C119.274 32.9643 119.047 32.8509 118.814 32.7341C119.04 32.7341 119.267 32.7341 119.501 32.7341C119.274 32.394 119.047 32.0539 118.814 31.7035C118.134 31.5788 118.134 31.5788 117.397 31.6391C116.957 31.6604 116.518 31.6816 116.065 31.7035C117.28 30.8941 117.727 30.8482 119.157 31.0165Z" fill="#1CBD5D"/>
<path d="M144.579 21.0537C144.692 21.0537 144.806 21.0537 144.923 21.0537C144.923 23.4344 144.923 25.815 144.923 28.2678C145.263 28.2678 145.603 28.2678 145.953 28.2678C145.953 26.2273 145.953 24.1867 145.953 22.0843C146.407 22.1977 146.86 22.311 147.327 22.4278C146.987 22.4278 146.647 22.4278 146.297 22.4278C146.41 22.9947 146.523 23.5615 146.64 24.1455C146.867 24.1455 147.094 24.1455 147.327 24.1455C147.327 24.3722 147.327 24.5989 147.327 24.8325C147.667 25.0593 148.008 25.286 148.358 25.5196C147.678 25.633 146.998 25.7463 146.297 25.8631C146.297 26.77 146.297 27.677 146.297 28.6114C145.73 28.6114 145.163 28.6114 144.579 28.6114C144.579 26.1173 144.579 23.6233 144.579 21.0537Z" fill="#1CBD5D"/>
<path d="M92.0186 21.0537C92.1319 21.0537 92.2453 21.0537 92.3621 21.0537C92.3621 23.4344 92.3621 25.815 92.3621 28.2678C92.7022 28.2678 93.0423 28.2678 93.3927 28.2678C93.3927 26.2273 93.3927 24.1867 93.3927 22.0843C93.7328 22.1977 94.0729 22.311 94.4233 22.4278C94.1965 22.4278 93.9698 22.4278 93.7362 22.4278C93.7362 23.108 93.7362 23.7882 93.7362 24.489C94.5298 24.6024 95.3233 24.7157 96.1409 24.8325C96.0275 25.0593 95.9142 25.286 95.7974 25.5196C94.7453 25.7343 94.7453 25.7343 93.7362 25.8631C93.7362 26.77 93.7362 27.677 93.7362 28.6114C93.1694 28.6114 92.6026 28.6114 92.0186 28.6114C92.0186 26.1173 92.0186 23.6233 92.0186 21.0537Z" fill="#1CBD5D"/>
<path d="M166.221 22.085C166.334 22.085 166.448 22.085 166.564 22.085C166.564 24.0122 166.564 25.9394 166.564 27.925C166.791 27.925 167.018 27.925 167.251 27.925C167.251 25.9978 167.251 24.0706 167.251 22.085C167.365 22.085 167.478 22.085 167.595 22.085C167.595 24.2389 167.595 26.3928 167.595 28.612C167.028 28.4987 166.461 28.3853 165.877 28.2685C165.868 27.3023 165.861 26.3362 165.856 25.37C165.853 25.0943 165.85 24.8186 165.847 24.5346C165.844 23.8325 165.859 23.1304 165.877 22.4285C165.991 22.3151 166.104 22.2018 166.221 22.085Z" fill="#1CBD5D"/>
<path d="M62.819 30.6729C63.0457 30.7862 63.2724 30.8996 63.506 31.0164C63.3654 33.3394 62.9669 35.3695 62.1319 37.5434C62.0186 37.09 61.9052 36.6365 61.7884 36.1693C61.2783 36.5094 61.2783 36.5094 60.7578 36.8564C60.9928 35.4219 61.4496 34.1491 61.9816 32.7984C62.2161 32.2 62.2161 32.2 62.4553 31.5894C62.5753 31.2869 62.6953 30.9845 62.819 30.6729Z" fill="#1CBD5D"/>
<path d="M106.447 21.0537C107.468 21.0537 108.488 21.0537 109.539 21.0537C108.508 21.7408 108.508 21.7408 107.478 22.0843C107.478 22.4598 107.478 22.8353 107.478 23.2222C107.478 24.8359 107.375 26.3269 107.134 27.9243C106.908 27.9243 106.681 27.9243 106.447 27.9243C106.447 25.657 106.447 23.3897 106.447 21.0537Z" fill="#1CBD5D"/>
<path d="M98.2021 10.748C98.769 10.748 99.3358 10.748 99.9198 10.748C99.5797 10.8614 99.2396 10.9748 98.8892 11.0916C98.8892 13.2455 98.8892 15.3994 98.8892 17.6186C99.2293 17.6186 99.5694 17.6186 99.9198 17.6186C99.9198 17.8454 99.9198 18.0721 99.9198 18.3057C99.353 18.1923 98.7861 18.079 98.2021 17.9622C98.2021 15.5815 98.2021 13.2008 98.2021 10.748Z" fill="#1CBD5D"/>
<path d="M137.708 43.3838C137.822 44.5174 137.935 45.6511 138.052 46.8191C137.712 46.7057 137.372 46.5924 137.021 46.4756C137.021 46.2488 137.021 46.0221 137.021 45.7885C136.681 45.7885 136.341 45.7885 135.991 45.7885C135.991 46.1286 135.991 46.4687 135.991 46.8191C135.65 46.7057 135.31 46.5924 134.96 46.4756C135.118 45.0508 136.168 43.3838 137.708 43.3838Z" fill="#1CBD5D"/>
<path d="M48.3906 24.833C48.8632 25.276 49.3208 25.7354 49.7647 26.2071C49.7647 26.4339 49.7647 26.6606 49.7647 26.8942C50.2182 27.0075 50.6717 27.1209 51.1389 27.2377C50.9157 27.5366 50.9157 27.5366 50.688 27.8416C49.1836 29.8993 49.1836 29.8993 49.0777 32.3907C48.2063 31.0836 48.4555 30.8038 48.7342 29.2989C48.8093 27.753 48.8172 26.3294 48.3906 24.833Z" fill="#F9C80B"/>
<path d="M166.221 21.3975C167.128 21.3975 168.035 21.3975 168.969 21.3975C168.856 21.6242 168.742 21.8509 168.625 22.0845C168.285 22.0845 167.945 22.0845 167.595 22.0845C167.481 24.0117 167.368 25.9389 167.251 27.9245C167.025 27.9245 166.798 27.9245 166.564 27.9245C166.451 25.7706 166.338 23.6167 166.221 21.3975Z" fill="#1CBD5D"/>
<path d="M83.4307 22.085C83.544 22.085 83.6574 22.085 83.7742 22.085C83.7742 22.6518 83.7742 23.2186 83.7742 23.8026C84.0009 23.8026 84.2277 23.8026 84.4613 23.8026C84.4613 25.2763 84.4613 26.7501 84.4613 28.2685C84.1212 28.2685 83.7811 28.2685 83.4307 28.2685C83.4307 26.2279 83.4307 24.1874 83.4307 22.085Z" fill="#1CBD5D"/>
<path d="M78.9646 43.3838C79.6448 43.3838 80.325 43.3838 81.0258 43.3838C81.0258 43.6105 81.0258 43.8372 81.0258 44.0708C80.7991 44.0708 80.5723 44.0708 80.3387 44.0708C80.3105 45.1165 80.347 45.8131 80.6823 46.8191C80.0021 46.8191 79.3219 46.8191 78.6211 46.8191C78.7345 45.6854 78.8478 44.5518 78.9646 43.3838Z" fill="#1CBD5D"/>
<path d="M86.5221 10.748C86.6355 10.748 86.7488 10.748 86.8656 10.748C86.8656 13.1287 86.8656 15.5094 86.8656 17.9622C86.0721 18.0755 85.2785 18.1889 84.4609 18.3057C84.4609 18.079 84.4609 17.8522 84.4609 17.6186C84.801 17.6186 85.1411 17.6186 85.4915 17.6186C85.3782 16.9384 85.2648 16.2583 85.148 15.5575C85.4881 16.0109 85.8282 16.4644 86.1786 16.9316C86.3486 13.8707 86.3486 13.8707 86.5221 10.748Z" fill="#1CBD5D"/>
<path d="M124.998 22.4287C126.018 22.4287 127.039 22.4287 128.09 22.4287C128.09 22.7688 128.09 23.1089 128.09 23.4593C127.75 23.4593 127.41 23.4593 127.059 23.4593C126.946 24.0261 126.832 24.5929 126.716 25.1769C126.489 25.1769 126.262 25.1769 126.029 25.1769C126.029 24.6101 126.029 24.0433 126.029 23.4593C125.689 23.4593 125.348 23.4593 124.998 23.4593C124.998 23.1192 124.998 22.7791 124.998 22.4287Z" fill="#1CBD5D"/>
<path d="M91.3318 44.0703C92.012 44.0703 92.6922 44.0703 93.393 44.0703C93.2796 44.5238 93.1663 44.9772 93.0495 45.4444C93.0495 45.1043 93.0495 44.7642 93.0495 44.4138C92.9361 44.9807 92.8227 45.5475 92.7059 46.1315C93.3861 45.9048 94.0663 45.678 94.7671 45.4444C94.427 45.8979 94.0869 46.3513 93.7365 46.8185C92.7489 46.7541 92.7489 46.7541 91.6753 46.475C91.1815 45.6377 91.1815 45.6377 90.9883 44.7574C91.1016 44.5306 91.215 44.3039 91.3318 44.0703ZM91.6753 45.1009C92.0189 45.788 92.0189 45.788 92.0189 45.788L91.6753 45.1009Z" fill="#1CBD5D"/>
<path d="M101.981 44.7578C102.538 45.6414 102.684 46.0209 102.54 47.0766C102.469 47.3317 102.398 47.5868 102.325 47.8496C101.871 47.9629 101.418 48.0763 100.951 48.1931C100.724 47.5129 100.497 46.8327 100.264 46.1319C100.717 46.1319 101.171 46.1319 101.638 46.1319C101.751 45.6785 101.865 45.225 101.981 44.7578Z" fill="#1CBD5D"/>
<path d="M152.824 44.0703C153.051 44.0703 153.277 44.0703 153.511 44.0703C153.511 44.4104 153.511 44.7505 153.511 45.1009C153.738 45.1009 153.964 45.1009 154.198 45.1009C154.198 44.8742 154.198 44.6474 154.198 44.4138C154.425 44.4138 154.651 44.4138 154.885 44.4138C154.471 45.2705 154.042 46.0221 153.511 46.8185C153.284 46.8185 153.057 46.8185 152.824 46.8185C152.824 46.5918 152.824 46.3651 152.824 46.1315C152.597 46.1315 152.37 46.1315 152.137 46.1315C152.437 44.4568 152.437 44.4568 152.824 44.0703Z" fill="#1CBD5D"/>
<path d="M37.398 23.1152C37.6247 23.2286 37.8514 23.342 38.085 23.4588C38.085 24.479 38.085 25.4993 38.085 26.5505C37.7449 26.5505 37.4048 26.5505 37.0544 26.5505C36.7109 26.207 36.7109 26.207 36.6465 25.2194C36.7109 24.1458 36.7109 24.1458 37.398 23.1152Z" fill="#D9B96F"/>
<path d="M39.8025 15.2139C40.0292 15.3272 40.2559 15.4406 40.4895 15.5574C40.2699 15.7629 40.0503 15.9683 39.824 16.18C39.0457 16.8999 39.0457 16.8999 38.7719 17.9621C38.4318 17.9621 38.0917 17.9621 37.7413 17.9621C37.7413 17.7354 37.7413 17.5086 37.7413 17.275C37.2878 17.3884 36.8344 17.5018 36.3672 17.6186C37.3917 16.4758 38.3815 15.8008 39.8025 15.2139Z" fill="#73C99F"/>
<path d="M121.219 10.748C121.332 10.748 121.446 10.748 121.562 10.748C121.676 13.1287 121.789 15.5094 121.906 17.9622C121.339 18.0755 120.772 18.1889 120.188 18.3057C120.075 18.079 119.962 17.8522 119.845 17.6186C120.298 17.6186 120.752 17.6186 121.219 17.6186C121.219 15.3513 121.219 13.084 121.219 10.748Z" fill="#1CBD5D"/>
<path d="M49.421 17.6191C49.9878 17.6191 50.5546 17.6191 51.1386 17.6191C51.3654 18.0726 51.5921 18.5261 51.8257 18.9933C51.4431 19.0358 51.0605 19.0783 50.6663 19.1221C49.4103 19.2154 49.4103 19.2154 48.7339 20.0238C48.7339 19.7971 48.7339 19.5704 48.7339 19.3368C48.5072 19.2234 48.2805 19.1101 48.0469 18.9933C48.387 18.9933 48.7271 18.9933 49.0775 18.9933C49.1908 18.5398 49.3042 18.0863 49.421 17.6191Z" fill="#AEE9CB"/>
<path d="M90.6452 45.1016C90.8719 45.1016 91.0986 45.1016 91.3322 45.1016C91.4456 45.6684 91.5589 46.2352 91.6757 46.8192C90.7688 46.8192 89.8619 46.8192 88.9275 46.8192C88.8141 46.3658 88.7008 45.9123 88.584 45.4451C88.9985 45.4557 88.9985 45.4557 89.4213 45.4666C90.2788 45.5469 90.2788 45.5469 90.6452 45.1016Z" fill="#1CBD5D"/>
<path d="M104.386 44.0703C104.612 44.0703 104.839 44.0703 105.073 44.0703C105.416 44.5284 105.76 44.9864 106.103 45.4444C106.33 45.4444 106.557 45.4444 106.79 45.4444C106.904 45.8979 107.017 46.3513 107.134 46.8185C106.454 46.8185 105.774 46.8185 105.073 46.8185C104.386 44.8433 104.386 44.8433 104.386 44.0703Z" fill="#1CBD5D"/>
<path d="M112.975 43.04C113.315 43.1534 113.655 43.2668 114.005 43.3836C114.119 44.4039 114.232 45.4241 114.349 46.4753C114.009 46.5887 113.669 46.7021 113.318 46.8189C113.205 45.5719 113.091 44.3248 112.975 43.04Z" fill="#1CBD5D"/>
<path d="M150.762 44.0703C151.103 44.1837 151.443 44.297 151.793 44.4138C151.915 44.87 152.028 45.3284 152.137 45.788C152.645 46.3824 152.645 46.3824 153.167 46.8185C152.137 46.8185 152.137 46.8185 151.106 46.475C150.698 45.423 150.698 45.423 150.419 44.4138C150.532 44.3005 150.646 44.1871 150.762 44.0703Z" fill="#1CBD5D"/>
<path d="M33.6191 37.2002C34.4127 37.4269 35.2062 37.6537 36.0238 37.8873C36.0734 38.0998 36.123 38.3124 36.1741 38.5314C36.3439 39.2726 36.3439 39.2726 36.7109 39.9484C35.53 39.4236 34.5846 38.7455 33.6191 37.8873C33.6191 37.6605 33.6191 37.4338 33.6191 37.2002Z" fill="#37B47B"/>
<path d="M33.9623 19.3369C34.1891 19.4503 34.4158 19.5636 34.6494 19.6804C34.177 20.5393 34.177 20.5393 33.6188 21.3981C33.3921 21.3981 33.1653 21.3981 32.9317 21.3981C32.8325 21.7311 32.7333 22.0641 32.6311 22.4072C32.2447 23.4593 32.2447 23.4593 31.5576 23.8028C31.7754 22.601 32.2625 21.7963 32.9532 20.7969C33.1414 20.5224 33.3296 20.2478 33.5235 19.9649C33.6683 19.7577 33.8131 19.5504 33.9623 19.3369Z" fill="#56BC8D"/>
<path d="M42.8945 14.5267C43.51 14.5174 44.1255 14.5108 44.741 14.5052C45.0838 14.5013 45.4265 14.4973 45.7796 14.4932C46.6734 14.5267 46.6734 14.5267 47.3604 14.8702C47.3604 15.097 47.3604 15.3237 47.3604 15.5573C46.5669 15.5573 45.7733 15.5573 44.9557 15.5573C44.9557 15.3306 44.9557 15.1038 44.9557 14.8702C44.2755 14.9836 43.5953 15.097 42.8945 15.2138C42.8945 14.987 42.8945 14.7603 42.8945 14.5267Z" fill="#7DCEA5"/>
<path d="M99.9203 44.4143C99.807 44.5276 99.6936 44.641 99.5768 44.7578C99.8035 45.438 100.03 46.1182 100.264 46.819C99.1073 46.4335 98.6681 45.9912 97.8592 45.1013C97.7458 44.8746 97.6324 44.6479 97.5156 44.4143C98.5498 44.0933 98.8439 44.0555 99.9203 44.4143Z" fill="#1CBD5D"/>
<path d="M62.8189 30.6729C63.0456 30.7862 63.2724 30.8996 63.506 31.0164C63.3926 32.15 63.2792 33.2837 63.1624 34.4517C62.8223 34.2249 62.4822 33.9982 62.1318 33.7646C62.3586 32.7443 62.5853 31.7241 62.8189 30.6729Z" fill="#1CBD5D"/>
<path d="M50.7954 31.7031C51.0221 31.7031 51.2489 31.7031 51.4825 31.7031C51.3691 32.4967 51.2557 33.2902 51.1389 34.1078C50.7988 34.2212 50.4587 34.3346 50.1083 34.4514C50.0393 33.1748 50.0561 32.812 50.7954 31.7031Z" fill="#EBC33A"/>
<path d="M57.6661 23.459C58.3532 24.4896 58.3532 24.4896 58.2673 25.3484C58.0097 26.2072 58.0097 26.2072 57.3226 27.2378C57.3134 26.6724 57.3067 26.107 57.3011 25.5416C57.2972 25.2268 57.2932 24.9119 57.2891 24.5875C57.3226 23.8025 57.3226 23.8025 57.6661 23.459Z" fill="#2BB375"/>
<path d="M137.022 26.5508C136.795 27.231 136.568 27.9112 136.334 28.612C135.087 28.612 133.84 28.612 132.556 28.612C132.556 28.4986 132.556 28.3852 132.556 28.2684C132.8 28.2516 133.044 28.2348 133.295 28.2174C133.611 28.1918 133.927 28.1661 134.252 28.1396C134.567 28.1157 134.882 28.0918 135.206 28.0671C135.595 27.9967 135.595 27.9967 135.991 27.9249C136.104 27.6982 136.218 27.4714 136.334 27.2378C136.108 27.1245 135.881 27.0111 135.647 26.8943C136.334 26.5508 136.334 26.5508 137.022 26.5508Z" fill="#1CBD5D"/>
<path d="M137.365 44.0703C137.252 44.5238 137.138 44.9772 137.021 45.4444C136.568 45.4444 136.114 45.4444 135.647 45.4444C135.534 45.6712 135.421 45.8979 135.304 46.1315C135.304 45.1009 135.304 45.1009 135.755 44.5212C136.334 44.0703 136.334 44.0703 137.365 44.0703Z" fill="#1CBD5D"/>
<path d="M85.148 15.5576C86.0494 16.6092 86.1786 16.8396 86.1786 18.3059C85.6118 18.3059 85.0449 18.3059 84.4609 18.3059C84.4609 18.0791 84.4609 17.8524 84.4609 17.6188C84.801 17.6188 85.1411 17.6188 85.4915 17.6188C85.3782 16.9386 85.2648 16.2584 85.148 15.5576Z" fill="#1CBD5D"/>
<path d="M132.212 45.1016C132.665 45.2149 133.119 45.3283 133.586 45.4451C133.473 46.1253 133.359 46.8055 133.243 47.5063C132.902 47.3929 132.562 47.2795 132.212 47.1627C132.212 46.4826 132.212 45.8024 132.212 45.1016Z" fill="#1CBD5D"/>
<path d="M52.8564 17.9619C53.5435 18.3913 53.5435 18.3913 54.2306 18.9925C54.2306 19.446 54.2306 19.8994 54.2306 20.3666C53.8905 20.2533 53.5504 20.1399 53.2 20.0231C53.0866 19.3429 52.9732 18.6627 52.8564 17.9619Z" fill="#8BE2B9"/>
</g>
<defs>
<clipPath id="clip0_1134_14079">
<rect width="146" height="40.88" fill="white" transform="translate(24 8)"/>
</clipPath>
</defs>
</svg>
