<svg width="40" height="40" viewBox="0 0 40 40" fill="none" xmlns="http://www.w3.org/2000/svg">
<path d="M28.292 8.98392C31.5365 11.5493 33.3908 15.055 33.9586 19.1498C34.2103 23.2572 32.7038 27.1202 30.0003 30.1942C26.2827 33.3439 22.7957 34.2791 18.0263 33.9489C14.6241 33.5893 11.4893 31.6028 9.28675 29.0241C6.67571 25.4057 5.80262 21.6528 6.47555 17.2084C7.38308 13.2562 9.98375 10.1775 13.3453 8.0008C18.139 5.39813 23.832 5.95365 28.292 8.98392Z" fill="#C2F1D9"/>
<path d="M1.66667 22.1611C1.88667 22.1611 2.10667 22.1611 2.33333 22.1611C2.76562 22.688 2.76562 22.688 3.25 23.3953C3.91906 24.3301 4.55787 25.0873 5.45833 25.8008C5.74708 26.0355 6.03583 26.2702 6.33333 26.512C6.33333 26.7328 6.33333 26.9537 6.33333 27.1813C5.67333 27.2918 5.01333 27.4022 4.33333 27.516C7.49079 31.7654 10.9363 35.1904 16.3333 36.2176C22.4909 36.8057 27.4059 35.6369 32.2292 31.6367C35.037 29.0115 36.4342 25.7481 37.6667 22.1611C37.9967 22.3268 37.9967 22.3268 38.3333 22.4958C38.2073 27.5925 35.8398 32.0009 32.2239 35.479C27.8752 39.0856 22.9397 40.3936 17.3333 39.8991C12.8634 39.2058 8.09582 36.9557 5.33333 33.2055C2.66667 29.1008 2.66667 29.1008 2.66667 27.516C1.34667 28.1787 1.34667 28.1787 0 28.8547C0.4787 26.5994 1.04669 24.3813 1.66667 22.1611Z" fill="#1CBD5D"/>
<path d="M30.333 3.08482C31.527 4.01446 32.6061 5.01724 33.6663 6.09693C33.8579 6.28589 34.0496 6.47486 34.247 6.66955C35.8159 8.34267 36.7126 10.388 37.6663 12.4558C37.8657 12.2833 38.065 12.1107 38.2705 11.9329C38.5111 11.7741 38.7517 11.6154 38.9996 11.4518C39.4946 11.6175 39.4946 11.6175 39.9996 11.7865C39.9072 12.0811 39.8149 12.3758 39.7197 12.6794C39.5989 13.0681 39.4782 13.4568 39.3538 13.8573C39.2339 14.2417 39.114 14.6261 38.9905 15.0221C38.7204 15.9511 38.5025 16.8592 38.333 17.8107C37.2161 17.4369 36.9499 17.1267 36.208 16.2419C36.0056 16.0024 35.8032 15.763 35.5947 15.5163C35.3983 15.2795 35.2019 15.0426 34.9996 14.7986C34.8273 14.5928 34.655 14.387 34.4775 14.175C34.0939 13.7152 33.7131 13.2531 33.333 12.7905C33.993 12.6801 34.653 12.5696 35.333 12.4558C32.7818 8.11639 29.2549 5.68502 24.5543 4.03264C19.8357 2.95682 14.9225 3.58995 10.7119 5.9662C9.8708 6.52491 9.1028 7.11683 8.33297 7.77032C8.10137 7.96188 7.86977 8.15343 7.63115 8.35078C4.92651 10.809 3.10249 14.3504 1.99964 17.8107C1.88964 17.8107 1.77964 17.8107 1.66631 17.8107C1.35614 13.1393 3.44097 9.23422 6.35381 5.72042C12.6515 -0.982072 22.6722 -1.70691 30.333 3.08482Z" fill="#1CBD5D"/>
<path d="M17.9997 12.4562C18.1097 12.6771 18.2197 12.898 18.333 13.1256C19.2322 13.3238 20.1015 13.4563 21.0231 13.472C21.7288 13.5021 21.7288 13.5021 22.9997 13.7949C23.6038 14.8826 23.6038 14.8826 23.9997 16.1377C24.1853 16.4483 24.3709 16.7589 24.5622 17.079C24.9997 17.8111 24.9997 17.8111 24.9997 18.4804C25.4397 18.5909 25.8797 18.7013 26.333 18.8151C26.1886 19.0054 26.0443 19.1956 25.8955 19.3917C24.6627 21.0214 24.6627 21.0214 24.3538 22.9777C24.3173 25.0667 22.7684 26.7449 21.333 28.1861C20.458 28.228 20.458 28.228 19.6663 28.1861C18.9541 26.3088 18.6663 24.851 18.6663 22.8313C18.3906 21.8045 18.0433 20.8126 17.6663 19.8192C16.7184 19.5952 15.9774 19.4863 14.9997 19.5682C13.9997 19.4845 13.9997 19.4845 13.0413 18.7733C12.333 17.8111 12.333 17.8111 12.083 16.8907C12.467 15.2201 13.4794 14.003 14.6663 12.7909C15.8241 12.4034 16.7866 12.4332 17.9997 12.4562Z" fill="#F3C61F"/>
<path d="M18.333 6.432C22.4415 6.1344 25.9259 7.12478 29.1846 9.68597C31.0685 11.4476 32.5602 13.6644 33.333 16.1377C33.2512 17.3416 33.0111 17.7939 32.333 18.8151C32.113 17.6002 31.893 16.3854 31.6663 15.1337C30.8963 15.0232 30.1263 14.9128 29.333 14.799C29.663 15.0199 29.993 15.2408 30.333 15.4683C30.2705 16.2423 30.2705 16.2423 29.9997 17.1417C29.0345 17.8813 28.5558 18.1458 27.333 18.1458C27.1643 17.7213 26.9981 17.2957 26.833 16.8698C26.7402 16.6329 26.6474 16.3961 26.5518 16.1521C26.333 15.4683 26.333 15.4683 26.333 14.4643C26.113 14.4643 25.893 14.4643 25.6663 14.4643C25.5563 14.133 25.4463 13.8016 25.333 13.4603C25.553 13.4603 25.773 13.4603 25.9997 13.4603C26.1097 13.0185 26.2197 12.5767 26.333 12.1215C25.783 12.1215 25.233 12.1215 24.6663 12.1215C24.6663 11.6798 24.6663 11.238 24.6663 10.7828C25.3263 10.6724 25.9863 10.5619 26.6663 10.4481C26.5563 10.1168 26.4463 9.78549 26.333 9.44411C26.003 9.55456 25.673 9.665 25.333 9.77879C25.113 9.66835 24.893 9.5579 24.6663 9.44411C24.5563 9.88589 24.4463 10.3277 24.333 10.7828C24.003 10.7828 23.673 10.7828 23.333 10.7828C23.223 11.1142 23.113 11.4455 22.9997 11.7869C22.8897 11.3451 22.7797 10.9033 22.6663 10.4481C22.2263 10.3377 21.7863 10.2273 21.333 10.1135C21.443 10.3344 21.553 10.5552 21.6663 10.7828C20.7863 10.6724 19.9063 10.5619 18.9997 10.4481C18.869 10.669 18.7384 10.8899 18.6038 11.1175C17.9997 11.7869 17.9997 11.7869 17.1038 11.8705C16.8495 11.8429 16.5951 11.8153 16.333 11.7869C16.333 11.2346 16.333 10.6824 16.333 10.1135C16.883 10.1135 17.433 10.1135 17.9997 10.1135C17.8897 9.56125 17.7797 9.00903 17.6663 8.44008C18.5504 8.08021 19.4276 7.73907 20.333 7.43604C20.333 7.21515 20.333 6.99426 20.333 6.76668C19.673 6.87713 19.013 6.98757 18.333 7.10136C18.333 6.88047 18.333 6.65959 18.333 6.432Z" fill="#2DB674"/>
<path d="M17.9997 12.4562C18.1097 12.6771 18.2197 12.898 18.333 13.1256C18.663 13.3465 18.993 13.5674 19.333 13.7949C19.113 13.7949 18.893 13.7949 18.6663 13.7949C18.6663 16.2247 18.6663 18.6545 18.6663 21.1579C18.4463 21.2683 18.2263 21.3788 17.9997 21.4926C17.8347 20.6642 17.8347 20.6642 17.6663 19.8192C16.7184 19.5952 15.9774 19.4863 14.9997 19.5682C13.9997 19.4845 13.9997 19.4845 13.0413 18.7733C12.333 17.8111 12.333 17.8111 12.083 16.8907C12.467 15.2201 13.4794 14.003 14.6663 12.7909C15.8241 12.4034 16.7866 12.4332 17.9997 12.4562Z" fill="#E3BB4F"/>
<path d="M21.6667 13.7946C21.5567 13.905 21.4467 14.0155 21.3334 14.1293C21.308 15.1111 21.3032 16.0852 21.3126 17.0669C21.3138 17.3619 21.3151 17.657 21.3164 17.961C21.3219 19.2289 21.3312 20.4968 21.3402 21.7647C21.3463 22.6879 21.3503 23.6111 21.3542 24.5344C21.357 24.8227 21.3598 25.111 21.3626 25.4081C21.371 27.4409 21.371 27.4409 21.0001 28.1858C20.5601 28.1858 20.1201 28.1858 19.6667 28.1858C18.963 26.3309 18.5898 24.8399 18.6667 22.8309C18.6118 22.569 18.5568 22.307 18.5002 22.0371C18.3249 21.1128 18.3246 20.3217 18.3738 19.3835C18.3899 19.0567 18.406 18.7299 18.4226 18.3932C18.4413 18.056 18.46 17.7188 18.4792 17.3715C18.4966 17.0278 18.5141 16.6842 18.532 16.3302C18.5751 15.4849 18.62 14.6397 18.6667 13.7946C19.8026 13.5393 20.5501 13.4209 21.6667 13.7946Z" fill="#ECC134"/>
<path d="M15.667 13.125C15.6631 13.5279 15.6593 13.9309 15.6553 14.3461C15.6521 14.8733 15.6491 15.4006 15.6462 15.9279C15.6434 16.1937 15.6406 16.4594 15.6377 16.7333C15.5902 18.1532 15.5902 18.1532 16.0003 19.4839C14.6614 19.6402 14.1453 19.5915 13.042 18.7727C12.3337 17.8105 12.3337 17.8105 12.1045 16.8692C12.5363 14.8592 13.5309 13.125 15.667 13.125Z" fill="#DDB960"/>
<path d="M20.9998 13.7949C21.6598 13.7949 22.3198 13.7949 22.9998 13.7949C22.9998 14.1263 22.9998 14.4576 22.9998 14.799C22.7798 14.799 22.5598 14.799 22.3331 14.799C22.3725 16.2582 22.414 17.7174 22.4572 19.1765C22.4716 19.6728 22.4855 20.1692 22.4989 20.6656C22.5181 21.3792 22.5394 22.0928 22.561 22.8064C22.5732 23.2358 22.5854 23.6652 22.598 24.1076C22.6216 25.1811 22.6216 25.1811 22.9998 26.178C22.5316 26.9356 21.9342 27.5237 21.3331 28.1861C20.7604 27.0361 20.9599 25.7147 20.9672 24.4497C20.9677 24.1461 20.9682 23.8425 20.9686 23.5297C20.9705 22.5578 20.9747 21.5859 20.9789 20.614C20.9806 19.956 20.9821 19.2979 20.9835 18.6399C20.9872 17.0249 20.9929 15.4099 20.9998 13.7949Z" fill="#F1C426"/>
<path d="M9.33301 28.5205C11.583 29.1062 11.583 29.1062 12.333 29.8592C13.1421 30.0866 13.1421 30.0866 14.0413 30.2357C14.4964 30.3199 14.4964 30.3199 14.9606 30.4057C15.1935 30.4462 15.4264 30.4868 15.6663 30.5286C15.7084 30.7417 15.7506 30.9548 15.7939 31.1744C15.9315 31.9222 15.9315 31.9222 16.6247 32.2438C16.8584 32.3404 17.0922 32.4371 17.333 32.5367C17.663 32.7575 17.993 32.9784 18.333 33.206C18.333 33.4269 18.333 33.6478 18.333 33.8754C14.6768 33.4224 11.9678 31.7203 9.33301 29.1899C9.33301 28.969 9.33301 28.7481 9.33301 28.5205Z" fill="#2CB574"/>
<path d="M17.6665 13.125C18.2165 13.2354 18.7665 13.3459 19.3332 13.4597C19.0032 13.6253 19.0032 13.6253 18.6665 13.7944C18.6665 16.2241 18.6665 18.6539 18.6665 21.1573C18.4465 21.2677 18.2265 21.3782 17.9999 21.492C17.3283 19.5748 17.2966 18.0041 17.4582 15.9907C17.4771 15.7139 17.496 15.4372 17.5155 15.152C17.5622 14.4761 17.6138 13.8005 17.6665 13.125Z" fill="#E7BE44"/>
<path d="M37.667 22.1611C37.887 22.2716 38.107 22.382 38.3337 22.4958C38.1972 24.759 37.8105 26.7367 37.0003 28.8547C36.8903 28.4129 36.7803 27.9712 36.667 27.516C36.172 27.8473 36.172 27.8473 35.667 28.1854C35.895 26.7878 36.3382 25.5478 36.8545 24.232C37.082 23.6489 37.082 23.6489 37.3141 23.054C37.4306 22.7594 37.547 22.4647 37.667 22.1611Z" fill="#1CBD5D"/>
<path d="M23.667 16.4717C24.1255 16.9033 24.5695 17.3508 25.0003 17.8104C25.0003 18.0313 25.0003 18.2522 25.0003 18.4798C25.4403 18.5902 25.8803 18.7006 26.3337 18.8144C26.1171 19.1056 26.1171 19.1056 25.8962 19.4027C24.4364 21.4075 24.4364 21.4075 24.3337 23.8346C23.4881 22.5612 23.7299 22.2886 24.0003 20.8225C24.0732 19.3165 24.0809 17.9295 23.667 16.4717Z" fill="#F9C80B"/>
<path d="M12.9997 14.7988C13.2197 14.9093 13.4397 15.0197 13.6663 15.1335C13.6663 16.1275 13.6663 17.1215 13.6663 18.1456C13.3363 18.1456 13.0063 18.1456 12.6663 18.1456C12.333 17.8109 12.333 17.8109 12.2705 16.8487C12.333 15.8029 12.333 15.8029 12.9997 14.7988Z" fill="#D9B96F"/>
<path d="M15.3333 7.10059C15.5533 7.21103 15.7733 7.32147 16 7.43526C15.7869 7.63544 15.5737 7.83562 15.3542 8.04187C14.599 8.74322 14.599 8.74322 14.3333 9.77802C14.0033 9.77802 13.6733 9.77802 13.3333 9.77802C13.3333 9.55713 13.3333 9.33624 13.3333 9.10866C12.8933 9.2191 12.4533 9.32955 12 9.44334C12.9941 8.33005 13.9546 7.67238 15.3333 7.10059Z" fill="#73C99F"/>
<path d="M24.6663 9.44336C25.2163 9.44336 25.7663 9.44336 26.333 9.44336C26.553 9.88514 26.773 10.3269 26.9997 10.7821C26.6284 10.8235 26.2572 10.8649 25.8747 10.9076C24.656 10.9985 24.656 10.9985 23.9997 11.7861C23.9997 11.5652 23.9997 11.3443 23.9997 11.1168C23.7797 11.0063 23.5597 10.8959 23.333 10.7821C23.663 10.7821 23.993 10.7821 24.333 10.7821C24.443 10.3403 24.553 9.89852 24.6663 9.44336Z" fill="#AEE9CB"/>
<path d="M9.33301 28.5205C10.103 28.7414 10.873 28.9623 11.6663 29.1899C11.7145 29.3969 11.7626 29.604 11.8122 29.8174C11.9768 30.5395 11.9768 30.5395 12.333 31.1979C11.1872 30.6866 10.2698 30.026 9.33301 29.1899C9.33301 28.969 9.33301 28.7481 9.33301 28.5205Z" fill="#37B47B"/>
<path d="M9.66634 11.1172C9.88634 11.2276 10.1063 11.3381 10.333 11.4519C9.87467 12.2886 9.87467 12.2886 9.33301 13.1253C9.11301 13.1253 8.89301 13.1253 8.66634 13.1253C8.57009 13.4497 8.47384 13.7741 8.37467 14.1084C7.99967 15.1333 7.99967 15.1333 7.33301 15.468C7.54431 14.2972 8.01693 13.5132 8.68717 12.5396C8.86979 12.2721 9.05241 12.0046 9.24056 11.729C9.38107 11.5271 9.52157 11.3252 9.66634 11.1172Z" fill="#56BC8D"/>
<path d="M18.333 6.4321C18.9302 6.42307 19.5274 6.41658 20.1247 6.41118C20.4573 6.4073 20.7898 6.40341 21.1325 6.39941C21.9997 6.4321 21.9997 6.4321 22.6663 6.76678C22.6663 6.98766 22.6663 7.20855 22.6663 7.43613C21.8963 7.43613 21.1263 7.43613 20.333 7.43613C20.333 7.21525 20.333 6.99436 20.333 6.76678C19.673 6.87722 19.013 6.98766 18.333 7.10146C18.333 6.88057 18.333 6.65968 18.333 6.4321Z" fill="#7DCEA5"/>
<path d="M37.6667 22.1611C37.8867 22.2716 38.1067 22.382 38.3333 22.4958C38.2233 23.6003 38.1133 24.7047 38 25.8426C37.67 25.6217 37.34 25.4008 37 25.1732C37.22 24.1792 37.44 23.1853 37.6667 22.1611Z" fill="#1CBD5D"/>
<path d="M25.9998 23.166C26.2198 23.166 26.4398 23.166 26.6665 23.166C26.5565 23.9391 26.4465 24.7122 26.3331 25.5088C26.0031 25.6192 25.6731 25.7297 25.3331 25.8434C25.2662 24.5998 25.2825 24.2463 25.9998 23.166Z" fill="#EBC33A"/>
<path d="M32.6667 15.1328C33.3333 16.1368 33.3333 16.1368 33.25 16.9735C33 17.8102 33 17.8102 32.3333 18.8143C32.3244 18.2635 32.3179 17.7126 32.3125 17.1618C32.3086 16.8551 32.3048 16.5483 32.3008 16.2323C32.3333 15.4675 32.3333 15.4675 32.6667 15.1328Z" fill="#2BB375"/>
<path d="M28 9.77832C28.6667 10.1967 28.6667 10.1967 29.3333 10.7824C29.3333 11.2241 29.3333 11.6659 29.3333 12.1211C29.0033 12.0106 28.6733 11.9002 28.3333 11.7864C28.2233 11.1237 28.1133 10.4611 28 9.77832Z" fill="#8BE2B9"/>
</svg>
